<svg width="1261" height="718" viewBox="0 0 1261 718" fill="none" xmlns="http://www.w3.org/2000/svg">
<path d="M336 1.20004C336 1.46671 326.667 29.2 315.2 62.8C303.867 96.4001 288.534 141.467 281.334 162.8L268.267 201.733L281.734 206.667C324.667 222.667 355.2 229.333 398 232C437.6 234.533 475.867 243.867 521.867 262.133C580.267 285.333 613.6 308.267 622 331.067C623.6 335.333 623.867 320.933 623.867 226.533C624 118.933 624 117.067 621.334 114.667C619.867 113.333 617.334 108 615.734 102.8C613.067 94.4001 611.734 92.2667 603.2 84C595.2 76.1334 590.4 72.9334 573.867 64.4001C545.867 50.0001 514.4 38.1334 486 31.4667C475.2 28.8 466.534 27.6 432.667 24.0001C399.867 20.4001 379.467 15.8667 352.934 6.00006C339.334 0.93338 336 6.10352e-05 336 1.20004Z" fill="white"/>
<path d="M902.267 7.46677C877.2 16.4001 859.067 20.2668 826 24.1334C777.734 29.6001 770.4 31.0668 739.467 41.3334C710.8 50.6668 674 68.6668 658.934 80.5334C651.334 86.6668 644 97.0668 644 101.867C644 105.333 640.267 112.667 636.534 116.267C634.934 117.867 634.667 134.933 634.667 229.467C634.667 302.667 635.067 340.667 636 340.667C636.8 340.667 637.334 339.2 637.334 337.467C637.334 331.6 645.6 318 654.134 310C665.734 299.2 680 290.133 703.334 278.667C760.267 250.8 803.734 238.133 861.334 232.667C913.2 227.733 925.067 225.333 965.734 211.733C985.734 204.933 992 202.4 992 200.667C992 199.467 990.4 194 988.534 188.533C979.2 162.133 943.467 58.4001 931.334 22.6668C925.2 4.66678 923.334 0.533447 921.467 0.80011C921.067 0.80011 912.4 3.86676 902.267 7.46677Z" fill="white"/>
<path d="M260.133 225.867C257.867 231.333 252 252.4 252 255.6C252 256.667 276.8 262.533 296 265.867C323.333 270.667 336.667 271.333 389.333 271.067C436.533 270.667 442.133 270.933 458.667 273.6C486.667 278 518.4 285.733 551.333 296C556.667 297.6 540.267 289.467 528 284.267C478.133 263.467 445.6 255.2 394.667 250.667C351.467 246.8 320.933 240.267 283.6 226.667C272.667 222.667 263.467 219.333 263.333 219.333C263.2 219.333 261.733 222.267 260.133 225.867Z" fill="white"/>
<path d="M991.333 221.867C982.267 226 950.667 236.267 936.4 239.867C916.8 244.8 896.133 248.133 869.333 250.667C810.133 256.133 777.333 264.933 718.933 290.933C704.133 297.467 701.733 299.467 713.6 295.333C725.2 291.333 752.533 283.867 769.333 280.133C809.067 271.333 828.933 269.733 882.933 270.8C929.333 271.733 944.667 270.533 979.6 263.467C1006.27 257.867 1009.33 256.933 1009.33 254.267C1009.33 249.867 1003.73 229.467 1001.2 224.267C998.267 218.667 998.533 218.667 991.333 221.867Z" fill="white"/>
<path d="M247.467 294.8C246.133 305.467 245.333 314.533 245.733 314.933C247.067 316.267 265.733 317.867 289.333 318.8C317.067 319.867 335.2 318.4 373.6 312C388.8 309.467 409.2 306.8 418.933 305.867C447.333 303.467 490.133 306.133 528.667 312.667C552.8 316.8 553.2 316.8 538.667 311.867C520.133 305.467 488.133 297.467 467.733 294.133C440.533 289.6 423.2 288.667 379.333 289.467C328.4 290.533 306.133 288.4 264.667 278.667C256.933 276.8 250.533 275.333 250.267 275.333C250.133 275.333 248.8 284.133 247.467 294.8Z" fill="white"/>
<path d="M990.667 280C954.4 288.667 948 289.333 884 289.467C821.6 289.6 809.2 290.533 777.467 297.467C754 302.4 709.734 314.8 710.934 316C711.2 316.267 719.734 315.067 730 313.333C740.267 311.6 757.334 309.2 768 308.133C814.267 303.333 838.267 304.133 886 312C932.267 319.6 956 320.933 992.934 318C1018.13 316 1016.53 316.8 1015.47 306.933C1012.93 283.467 1011.6 275.333 1010.13 275.467C1009.33 275.6 1000.53 277.6 990.667 280Z" fill="white"/>
<path d="M556 298C557.067 298.667 558.667 299.333 559.333 299.333C560.133 299.333 559.733 298.667 558.667 298C557.6 297.333 556.133 296.667 555.333 296.667C554.667 296.667 554.933 297.333 556 298Z" fill="white"/>
<path d="M418.4 324.8C411.2 325.333 392.667 328 376.933 330.533C342.133 336.267 324.667 338 301.333 338C284.533 338 258 336.267 248.533 334.667C244.4 334 244.267 334.133 243.6 339.6C243.067 342.8 242.4 351.6 241.867 359.2L240.933 373.067L261.6 372.267C302.667 370.4 324.533 366.533 369.333 353.2C422.8 337.2 449.067 333.6 507.867 334.267L545.867 334.667L533.867 332.4C507.6 327.6 462.133 323.2 441.333 323.467C435.867 323.6 425.467 324.133 418.4 324.8Z" fill="white"/>
<path d="M802 324.267C785.6 324.933 762.667 327.333 740 330.8C727.867 332.667 717.867 334.267 717.734 334.4C717.6 334.533 737.467 334.667 761.734 334.667C820.934 334.8 837.2 337.067 891.334 353.333C936.267 366.8 959.2 370.8 998.534 372.267L1020.4 373.067L1019.47 359.2C1018.93 351.6 1018.27 342.933 1017.87 339.867L1017.07 334.533L1008.27 335.733C1003.33 336.533 982.267 337.067 961.334 337.2C925.6 337.333 922 337.067 901.334 333.6C852.267 325.333 828.4 323.067 802 324.267Z" fill="white"/>
<path d="M652.8 438.667C625.467 445.6 604.267 465.867 595.2 493.6C591.733 504.267 591.333 506.933 591.467 523.333C591.6 539.067 592 542.533 594.933 550.8C602.533 571.733 617.6 587.733 638 596.267C652 602.133 677.6 603.867 692.533 600C734.933 588.933 758.267 546.933 748.533 499.733C742.8 471.6 723.067 448.267 698.8 440.533C687.333 436.8 664 435.867 652.8 438.667ZM694 449.867C708.267 456.933 719.067 472.4 724.933 494C727.867 504.8 728.133 532.533 725.467 543.333C720.267 564.8 704.667 585.067 688.667 591.333C676.8 596 660.8 595.867 650.267 590.933C635.2 584 622.533 566.267 617.333 544.533C614 530.667 613.733 506.4 616.667 494.667C621.733 474.8 635.733 455.333 649.733 448.933C663.2 442.667 680 442.933 694 449.867Z" fill="white"/>
<path d="M535.734 439.333C528.534 439.733 522.534 440.4 522.267 440.8C522 441.067 511.734 471.2 499.333 507.6C487.067 544.133 476.534 574 476 574C475.467 574 461.867 545.2 445.867 510C430 474.667 416.533 445.6 416 445.333C415.467 445.067 404.8 445.2 392.267 445.6L369.333 446.4V450.267V454.133L378.133 453.867C384.533 453.6 387.2 454 388.133 455.467C388.8 456.533 389.333 488.933 389.333 528.933V600.667H382C374.8 600.667 374.667 600.8 374.667 604.533V608.4L397.067 607.733C420 607.067 423.6 606.133 421.867 601.6C421.2 599.733 419.2 599.333 411.333 599.333H401.6L400.8 590.933C398.4 564 395.733 464.533 397.2 460.267C398.267 457.333 395.2 450.933 431.6 530.533C464.267 602 466.4 606.4 467.867 605.467C468.4 605.067 472 599.467 475.734 593.067C481.2 583.6 486.4 569.467 503.2 520C514.667 486.267 524.4 457.733 524.934 456.667C525.467 455.467 526.133 456.667 526.8 460C528.133 466.8 531.867 531.6 532.934 566.933L533.734 593.867L525.867 594.267C518.4 594.667 518 594.8 517.6 598.4L517.2 602.133L542.934 601.333C574.134 600.267 574.667 600.267 574.667 596C574.667 592.933 574.134 592.8 566.4 592.4L558 592L557.2 586.667C554.934 573.2 549.334 482.8 549.334 459.733V446.133L557.067 445.733C564.267 445.333 564.667 445.2 565.067 441.6L565.467 438L557.067 438.267C552.4 438.267 542.8 438.8 535.734 439.333Z" fill="white"/>
<path d="M777.067 441.467C776.4 442 776 443.733 776 445.333C776 448.667 780 450 789.467 450H794.667V468.667C794.667 487.733 791.333 564.8 789.6 584L788.667 594.667L781.067 595.067C774 595.467 773.333 595.733 773.333 598.667C773.333 602.8 775.067 603.067 804.667 603.6L828.667 604V600.667C828.667 597.467 828.267 597.333 820.4 596.933L812 596.533V564.267C812 546.533 812.533 531.2 813.2 530.133C814.8 527.733 838.4 529.067 849.733 532.267C860.133 535.2 868.267 542.4 872.267 552.4C874.934 559.2 875.2 562.267 875.334 583.333V606.667L884.667 607.467C889.867 608 898.4 608.4 903.734 608.533C913.067 608.667 913.333 608.533 913.333 605.333C913.333 602 912 601.467 901.333 600.4C898 600 898 599.867 897.067 584C895.467 554.533 887.867 541.467 866 530.4L858.133 526.267L867.334 521.6C888.8 510.8 898.4 492.8 892.8 473.867C890 464 885.867 458.267 878.133 453.067C867.067 445.6 861.334 444.533 824.667 443.333C806.4 442.667 788.4 441.733 784.667 441.333C781.067 440.8 777.6 440.933 777.067 441.467ZM846.267 452.933C856 456.533 864.133 463.2 868.667 471.467C872.133 477.733 872.534 480 872.534 488.667C872.4 503.867 866.667 514.8 855.6 521.333C849.867 524.533 849.733 524.667 832.133 523.333C822.267 522.667 814 521.867 813.733 521.467C813.333 521.2 814 505.2 815.067 486C816.4 458.8 817.333 450.8 818.8 449.867C821.6 448.133 838.267 450 846.267 452.933Z" fill="white"/>
<path d="M324 447.2C324 449.2 322.8 450 319.067 450.533C310.8 451.733 249.867 457.867 234.667 458.933C220.933 460 220.667 460 220.667 463.333C220.667 466.533 221.067 466.667 228.267 466.533C236.933 466.4 236.4 465.733 238.667 479.333C240.8 492.533 252 601.333 252 608.933C252 610.667 250 611.333 242.4 612.267C233.733 613.2 232.667 613.6 232.267 616.4C232 618.133 232.667 619.733 234 620.133C235.067 620.667 245.2 620 256.4 618.8C267.467 617.6 294.4 615.067 316 613.333C337.6 611.467 356.4 609.6 357.733 609.2C359.867 608.533 360.133 607.467 359.467 600.933C359.067 596.667 358.4 588.4 357.867 582.267L357.067 571.333H353.067H349.067L349.6 585.6L350 599.867L312.933 603.733C291.733 606 275.2 607.067 274.533 606.4C273.467 605.333 267.333 558.533 266.4 544.667L266 538.667L284.667 537.067C307.2 535.067 317.867 534.667 319.733 535.733C320.4 536.267 321.467 540 322 544C322.8 550.533 323.2 551.333 326 551.333C327.733 551.333 329.467 550.8 329.867 550.133C330.533 549.067 329.2 531.6 327.2 514.267C326.533 509.067 326.133 508.667 322.667 508.667H318.667L319.067 516.933C319.333 524.933 319.2 525.067 315.467 526.133C309.867 527.733 266.533 531.6 265.6 530.667C263.733 528.8 258 466.133 259.6 464.533C260.933 463.2 312.267 458.933 319.733 459.6L324.667 460L325.333 470C326 479.733 326.133 480 329.733 480.4C333.333 480.8 333.333 480.8 333.333 472.933C333.333 468.667 332.933 460.533 332.533 454.933C331.6 444.8 331.6 444.667 327.867 444.667C324.933 444.667 324 445.333 324 447.2Z" fill="white"/>
<path d="M932.934 449.6C931.2 451.2 932 455.067 934.134 455.867C935.334 456.267 938.4 456.667 941.067 456.667C952 456.667 952 456.8 952 471.2C952 490 942.8 595.467 940.667 601.6C940.267 602.8 936.8 603.333 929.334 603.333C918.934 603.333 918.667 603.467 918.667 606.533C918.667 610.4 921.467 611.333 933.467 611.333C938.267 611.333 951.467 612.267 962.667 613.333C983.6 615.467 986 615.2 985.067 610.533C984.667 608.4 982.8 607.733 974.8 606.8L964.934 605.733L965.734 585.467C966.667 560.267 972.934 483.333 975.067 470L976.667 460L987.067 460.533L997.6 460.933L997.067 457.2L996.667 453.333L980 452.4C970.8 452 958.267 450.933 952 450.133C938.934 448.4 934.134 448.267 932.934 449.6Z" fill="white"/>
<path d="M1050.13 461.333C1036.53 465.2 1021.07 479.467 1017.47 491.333C1013.73 503.867 1016.53 520.133 1024 529.6C1028.93 535.867 1042.13 545.467 1054.8 552C1084.93 567.467 1093.2 576.667 1091.73 592.933C1090.4 605.733 1078.8 616.267 1064.27 617.733C1056.53 618.4 1043.87 615.333 1031.73 609.733C1018.13 603.467 1017.47 602.533 1017.07 586C1016.67 572 1016.67 572 1013.2 571.6C1009.73 571.2 1009.73 571.333 1008.93 581.467C1008.4 587.067 1008 596.133 1008 601.6V611.467L1018.27 616.267C1032.27 622.8 1050.67 626.4 1066.13 625.733C1081.73 625.067 1092.53 620.267 1102.53 609.2C1110.27 600.667 1113.33 592.533 1113.33 580.133C1113.33 560.133 1105.33 550.8 1074.13 534C1062.67 527.867 1050.8 520.8 1047.87 518.267C1035.2 507.467 1033.73 491.2 1044.27 477.733C1052.67 466.933 1069.33 463.733 1082.93 470.4C1090.4 474.133 1103.6 486 1105.33 490.667C1105.87 492.133 1105.73 496.8 1105.07 501.067C1103.47 510.267 1104.13 512.667 1108.53 512.667C1112.53 512.667 1112.27 513.467 1115.87 488C1118.67 468.4 1118.4 466.933 1112.67 467.6C1111.2 467.867 1109.87 469.2 1109.6 470.667C1108.67 475.733 1106.93 475.733 1100.8 470.8C1097.47 468 1091.6 464.533 1087.73 463.067C1078.67 459.6 1059.33 458.667 1050.13 461.333Z" fill="white"/>
<path d="M169.733 465.2C160 466.933 151.733 468.533 151.333 468.8C150.933 469.2 143.6 499.867 134.933 537.067C126.267 574.267 118.8 605.067 118.267 605.6C117.733 606 117.067 606.133 116.8 605.867C116.533 605.6 100.933 578.267 82.1334 545.333C63.2001 512.267 47.0667 484.533 46.1334 483.6C44.8001 482.267 43.0667 482.267 37.8667 483.333C34.2667 484.267 24.4001 485.6 16.0001 486.4L0.666748 488V492C0.666748 495.867 0.800081 496 6.00008 495.467C19.0667 494 19.2001 494.133 20.2667 500.667C21.6001 508.933 31.8667 611.867 32.9334 627.467L33.7334 640.267L27.4667 640.933C19.7334 641.867 17.8667 643.333 20.0001 647.2C20.8001 648.8 21.8667 649.867 22.4001 649.467C23.2001 649.067 40.6667 646.533 61.0667 643.867C65.8667 643.333 66.6667 642.667 66.6667 640C66.6667 638.267 66.2667 636.533 65.7334 636.267C65.0667 635.867 60.5334 636.267 55.6001 636.933C50.6667 637.733 46.2667 638 45.8667 637.733C44.1334 635.867 28.0001 511.733 28.0001 499.467C28.0001 497.733 28.2667 497.733 29.8667 499.333C30.9334 500.4 48.6667 530.667 69.3334 566.4C111.6 640 110.533 638.267 112.4 637.6C113.067 637.467 116.4 631.067 119.6 623.6C124.133 612.667 128.4 597.333 140 548.267C155.733 482.533 155.733 482.533 156.8 483.6C158.4 485.2 174.133 590.667 175.467 609.2L176.4 620.267L168.8 621.2C161.6 622.133 161.333 622.267 161.333 626.267C161.333 630.133 161.6 630.267 165.733 629.6C168 629.2 179.6 627.6 191.333 626C220.4 622 218.933 622.4 218.4 618.933C218 616.267 217.2 616 209.467 616C201.067 616 200.8 615.867 199.867 612C196.267 598.267 178.667 484.533 178.667 475.333C178.667 471.733 179.067 471.467 186 470.667C194 469.6 195.333 468.667 194 464.667C192.933 461.467 192.533 461.467 169.733 465.2Z" fill="white"/>
<path d="M1149.33 474.133C1147.33 477.867 1148.53 478.933 1156.67 480.267L1163.33 481.467L1162.93 490.667C1162.4 506.933 1146.67 623.733 1144.93 625.6C1144.67 625.867 1140.53 625.467 1135.87 624.8C1126.13 623.467 1125.33 623.733 1125.33 628C1125.33 631.467 1124.93 631.333 1146.67 634C1152.93 634.8 1177.33 638.4 1200.93 642.133C1224.53 645.733 1245.47 648.667 1247.33 648.667C1251.07 648.667 1250.93 649.067 1254 630.667C1256.67 614.533 1256.53 611.733 1253.33 610.667C1251.87 610.267 1250.13 610.133 1249.6 610.533C1248.93 610.933 1247.6 616.4 1246.67 622.667C1245.73 628.933 1244.27 634.933 1243.47 636C1242.27 637.6 1236.53 637.067 1205.73 632.8C1185.73 630.133 1168.93 627.333 1168.4 626.933C1167.6 626.133 1171.73 585.333 1174.53 566L1175.33 560L1183.6 560.267C1195.07 560.8 1225.47 565.733 1227.73 567.6C1228.93 568.667 1229.47 571.467 1229.07 576.533C1228.67 583.867 1228.8 584 1232.4 584.4C1234.4 584.667 1236 584.667 1236 584.4C1236 584.133 1237.2 575.867 1238.67 566C1242.27 542 1242.27 541.733 1237.73 542.267C1234.53 542.667 1234 543.467 1232.67 550L1231.33 557.333L1225.33 557.6C1222 557.867 1210 556.667 1198.67 554.933L1178 552L1177.6 547.867C1177.07 542.4 1185.07 487.067 1186.67 485.467C1188 484.133 1247.87 493.333 1249.73 495.2C1250.4 495.867 1250.27 500.4 1249.33 506C1247.6 516.133 1248.4 518.533 1253.33 517.6C1255.47 517.333 1259.6 500 1260.27 488C1260.67 482.4 1260.27 481.333 1258.13 480.933C1256.67 480.533 1254.67 481.6 1253.47 483.2L1251.2 486.133L1210.67 480.667C1173.47 475.733 1159.2 473.6 1153.07 471.867C1151.73 471.467 1150.27 472.267 1149.33 474.133Z" fill="white"/>
<path d="M438.667 669.333C436.133 670.8 435.867 671.2 437.733 671.333C439.733 671.333 440 673.067 440 688.267C440.133 700 440.533 704.667 441.333 703.067C442.533 701.067 443.067 701.067 446.533 702.8C454.267 706.667 461.2 700 459.333 690.4C458.533 686.267 453.2 680.667 450.133 680.667C449.333 680.667 450.267 682 452.4 683.467C455.333 685.733 456 687.2 456 692.133C456 701.467 450.667 705.2 444.4 700.267C441.467 698.133 442.267 687.733 445.467 684.533C448.267 681.733 448.267 681.733 445.467 682.667C443.067 683.467 442.8 682.8 442.4 675.467L442 667.6L438.667 669.333Z" fill="white"/>
<path d="M480.133 669.2C477.6 670.667 477.333 671.067 479.2 671.733C480.933 672.4 481.333 675.067 481.333 688.933C481.467 700.667 481.733 704.667 482.8 703.067C484 700.8 484.4 700.8 487.467 702.8C492.133 705.867 498 703.333 500 697.2C501.333 693.467 501.2 691.867 499.067 687.733C496.8 683.2 490.667 679.067 490.667 682C490.667 682.8 491.6 683.333 492.667 683.333C497.6 683.333 499.067 696.267 494.667 700.667C492.133 703.2 489.333 703.067 485.733 700.267C484.8 699.6 484 696.133 484 692.533C484 687.467 484.667 685.733 487.067 684L490 681.733L487.067 682.667C484.267 683.467 484.133 683.067 483.733 675.467C483.333 667.6 483.333 667.6 480.133 669.2Z" fill="white"/>
<path d="M508.133 669.2C505.467 670.667 505.333 671.067 507.333 671.733C509.333 672.533 509.467 674.533 509.067 688C508.8 700.933 508.933 703.333 510.667 703.333C512.267 703.333 512.667 701.2 512.267 691.067C511.6 666.4 511.733 667.333 508.133 669.2Z" fill="white"/>
<path d="M578.667 669.333C576 670.8 575.867 671.2 577.734 671.333C580 671.333 580.134 672.667 579.734 687.333L579.334 703.333H582.667C585.2 703.333 585.467 702.933 584.267 701.733C581.734 699.2 582.267 688.133 585.067 685.6C591.867 679.467 596.934 685.467 594.934 696.8C593.734 702.933 593.867 703.333 596.534 703.333C599.334 703.333 599.334 702.933 598.667 694.267C598.134 689.2 597.334 684.533 596.934 683.733C595.467 681.333 590.934 680.933 587.2 682.8C585.334 683.867 583.467 684.667 583.2 684.667C582.934 684.667 582.667 680.8 582.4 676.133L582 667.6L578.667 669.333Z" fill="white"/>
<path d="M608.933 669.067C608.4 670.4 609.467 672 611.467 673.333C616 676.267 616.4 675.467 612.8 670.933C610.4 667.867 609.6 667.467 608.933 669.067Z" fill="white"/>
<path d="M783.467 669.733C783.067 670.533 783.6 671.333 784.667 671.867C786.267 672.4 786.667 675.333 786.667 686.4C786.667 695.333 786.133 700.667 785.067 701.733C783.867 702.933 784.133 703.333 786.8 703.333H790L789.333 686.4C788.8 671.867 788.4 669.333 786.4 668.933C785.2 668.667 783.867 669.067 783.467 669.733Z" fill="white"/>
<path d="M379.733 672.267C381.733 673.067 382 699.467 379.867 701.6C378.933 702.533 381.467 703.2 388.133 703.867C393.467 704.267 397.867 704.533 398 704.4C398.267 704.133 398.8 701.867 399.2 699.333C400 695.333 399.867 695.067 398.533 697.333C396.267 701.067 394.667 702 389.733 702C384.267 702 383.6 699.867 384.267 683.467L384.667 671.333L381.333 671.467C379.467 671.467 378.8 671.867 379.733 672.267Z" fill="white"/>
<path d="M468 674.667C468 675.733 468.933 676.667 470 676.667C471.067 676.667 472 675.733 472 674.667C472 673.6 471.067 672.667 470 672.667C468.933 672.667 468 673.6 468 674.667Z" fill="white"/>
<path d="M522.667 674.667C522.667 675.733 523.6 676.667 524.667 676.667C525.733 676.667 526.667 675.733 526.667 674.667C526.667 673.6 525.733 672.667 524.667 672.667C523.6 672.667 522.667 673.6 522.667 674.667Z" fill="white"/>
<path d="M800 674.667C800 675.733 800.933 676.667 802 676.667C803.067 676.667 804 675.733 804 674.667C804 673.6 803.067 672.667 802 672.667C800.933 672.667 800 673.6 800 674.667Z" fill="white"/>
<path d="M561.733 680C559.733 682.4 559.467 683.333 560.667 683.333C562.133 683.333 562.533 685.333 562.267 692C562 702 564.133 705.6 569.467 703.867L572.667 702.8L569.333 702C566.267 701.333 566 700.533 565.6 692.4C565.2 683.6 565.2 683.467 568.933 682.933L572.667 682.4L569.067 682.133C566.667 682 565.333 681.2 565.067 679.333C564.667 676.933 564.533 676.933 561.733 680Z" fill="white"/>
<path d="M408.4 682C406.533 682.8 405.333 684.4 405.333 686C405.333 687.6 406 688.4 406.667 688C407.467 687.6 408 686.267 408 685.2C408 684.133 409.333 683.333 411.333 683.333C413.733 683.333 415.067 684.267 416.133 686.8C417.6 691.067 418.133 690.533 410.667 692.8C405.733 694.267 404.533 695.333 404.267 698.133C403.733 703.2 407.2 705.6 412.267 703.6C415.333 702.533 416.933 702.533 418.8 703.733C420.667 704.933 421.6 704.933 422.933 703.6C424.4 702.133 424.267 701.867 422.667 702.267C421.067 702.533 420.533 700.8 420 693.733C419.6 688.8 418.8 684.267 418 683.6C415.733 681.467 411.467 680.8 408.4 682ZM417.333 696.533C417.333 700.4 415.467 702 410.667 702C407.733 702 406.133 698.267 408.133 695.867C409.333 694.4 410.8 693.867 416.4 692.8C416.933 692.8 417.333 694.4 417.333 696.533Z" fill="white"/>
<path d="M541.333 682C532.933 684 532.533 700.267 540.933 703.467C549.333 706.667 556.4 698.533 553.467 688.667C551.867 683.067 547.2 680.533 541.333 682ZM550.667 689.467C551.067 691.6 551.067 695.067 550.667 697.333C550.133 700.533 549.2 701.467 546.267 701.733C541.733 702.267 539.2 700.4 538.267 695.733C537.333 690.933 539.6 683.6 542.4 682.933C545.867 682.133 549.867 685.2 550.667 689.467Z" fill="white"/>
<path d="M613.334 681.6C608.534 683.333 606.667 686.4 606.667 692.8C606.667 698 607.2 699.6 610.134 701.867C614.267 705.067 615.2 705.2 620.667 702.8L624.667 700.933L619.2 701.6C614.534 702.267 613.334 701.867 611.467 699.2C607.734 693.867 608.667 692.667 616.667 692.667C623.2 692.667 624 692.4 624 690C624 687.2 618.4 680.533 616.4 680.8C615.867 680.8 614.4 681.2 613.334 681.6ZM621.067 687.867C621.467 689.6 620.4 690 615.467 690C608.667 690 608 688.667 612.134 684.533C614.534 682.133 615.2 682 617.734 683.733C619.334 684.8 620.8 686.667 621.067 687.867Z" fill="white"/>
<path d="M635.866 682.533C628.8 686 627.466 698.267 633.733 702.667C638.266 705.867 641.333 705.067 637.066 701.867C634.133 699.6 633.333 698 633.333 693.867C633.333 684.4 637.333 681.067 644.133 684.667C647.866 686.667 647.733 696.933 643.866 700.8L641.066 703.6L643.866 702.667C646.4 701.867 646.666 702.267 646.666 707.867C646.666 711.067 645.866 714.667 644.933 715.6C643.333 717.067 643.866 717.333 648.133 717.333C651.466 717.333 652.533 717.067 651.333 716.267C649.733 715.467 649.333 711.733 649.333 697.733C649.333 683.067 649.066 680.533 647.466 681.867C646.266 682.933 644.533 682.933 642.4 682.133C640.133 681.333 638 681.467 635.866 682.533Z" fill="white"/>
<path d="M690.4 682.533C682.533 686.4 682.533 700 690.533 703.2C693.467 704.533 695.2 704.4 698.8 702.933L703.333 700.933L698.267 701.6C692.667 702.4 688 699.467 688 695.067C688 693.067 689.067 692.667 695.333 692.667C703.333 692.667 704.667 690.8 700.667 685.067C698.133 681.6 694.4 680.533 690.4 682.533ZM698.667 685.333C698.667 685.6 699.067 686.667 699.467 687.867C700.133 689.6 699.2 690 694.133 690C689.733 690 688 689.467 688 688.133C688 684.933 693.333 681.867 696.267 683.467C697.6 684.133 698.667 684.933 698.667 685.333Z" fill="white"/>
<path d="M726.667 681.733C722 683.2 720 686.4 720 692.8C720 698 720.533 699.6 723.467 701.867C727.6 705.067 728.533 705.2 734 702.8L738 700.933L732.533 701.6C727.867 702.267 726.667 701.867 724.8 699.2C721.067 693.867 722 692.667 730 692.667C736.133 692.667 737.333 692.267 737.333 690.267C737.333 684.933 731.467 680.267 726.667 681.733ZM734.4 687.867C734.8 689.6 733.733 690 728.8 690C722 690 721.333 688.667 725.467 684.533C727.867 682.133 728.533 682 731.067 683.733C732.667 684.8 734.133 686.667 734.4 687.867Z" fill="white"/>
<path d="M745.333 682C743.733 682.933 743.733 683.6 745.067 684.933C747.067 686.933 747.2 699.6 745.067 701.733C743.867 702.933 744.133 703.333 746.8 703.333C749.867 703.333 750 703.067 749.6 694.667C749.067 686.4 749.333 686 752.667 684.4C758.667 681.733 760.667 684.133 760.667 694.533C760.667 702.933 760.8 703.333 764 703.333C766.533 703.333 766.8 702.933 765.6 701.733C764.667 700.8 764 696.667 764 692.4C764 685.733 763.6 684.4 760.8 682.667C757.867 680.667 757.2 680.667 753.467 682.533C748.533 685.2 748.267 685.2 747.733 682.667C747.467 681.333 746.8 681.067 745.333 682Z" fill="white"/>
<path d="M822.4 683.333C826.933 687.6 826.133 696.667 821.2 696.667C819.867 696.667 817.733 695.067 816.4 693.2C814.267 689.867 814.267 689.467 816.4 685.733C817.867 683.067 818.133 682 817.067 682.267C816.133 682.667 814.533 684.4 813.467 686.267C811.867 689.067 811.867 690.133 813.6 693.467C815.067 696.4 815.2 698.133 814.133 699.733C813.067 701.467 813.067 702.4 814.4 703.2C815.733 704 815.733 704.533 814 706C809.2 710 813.733 718 821.067 718C826.4 718 832 714.267 832 710.667C832 706.8 828.133 704 821.067 702.8C814.8 701.733 814 698 819.867 698C825.6 698 828.133 694.8 827.867 687.867C827.6 684.667 827.2 682.267 826.933 682.667C826.667 682.933 824.8 682.533 822.8 681.867L819.333 680.533L822.4 683.333ZM827.867 707.867C832.4 710.667 825.2 717.6 819.333 716.133C815.6 715.2 813.467 709.6 815.867 706.8C817.333 704.933 824.133 705.6 827.867 707.867Z" fill="white"/>
<path d="M829.733 682.667C829.733 683.733 830.267 684.667 830.933 684.667C831.467 684.667 832 684.133 832 683.467C832 682.667 831.467 681.867 830.933 681.467C830.267 681.067 829.733 681.6 829.733 682.667Z" fill="white"/>
<path d="M838.667 682C837.2 682.933 837.2 683.467 838.533 685.2C839.733 686.667 840.133 690 839.733 695.333C839.2 702 839.467 703.333 841.2 703.333C842.933 703.333 843.2 701.867 842.933 694.667C842.4 686.4 842.667 686 846 684.4C852 681.733 854 684.133 854 694.533C854 702.933 854.133 703.333 857.333 703.333C859.867 703.333 860.133 702.933 858.933 701.733C858 700.8 857.333 696.667 857.333 692.4C857.333 685.733 856.933 684.4 854.133 682.667C851.2 680.667 850.533 680.667 846.8 682.533C843.333 684.4 842.667 684.4 841.733 682.667C840.933 681.467 840 681.2 838.667 682Z" fill="white"/>
<path d="M877.067 682.933C878.667 684 880 686.133 880 687.467C880 689.467 878.933 690 874.667 690C868.8 690 867.733 687.867 871.467 684.133C872.533 682.933 872.933 682 872.133 682C868.8 682 865.333 687.467 865.333 692.267C865.467 699.467 869.2 703.867 875.2 703.867C877.867 703.867 880.533 703.333 881.333 702.533C882.267 701.6 881.067 701.333 877.733 701.733C872.533 702.4 869.333 699.867 869.333 695.067C869.333 693.067 870.533 692.667 876.667 692.667C880.667 692.667 884 692.4 884 692C884 688.667 879.733 682.267 877.2 681.6L874 680.8L877.067 682.933Z" fill="white"/>
<path d="M466 683.333C463.867 684.267 463.733 684.533 465.6 684.533C468.667 684.667 469.467 688.133 468.133 696.267C467.067 702.933 467.2 703.333 469.867 703.333C472.667 703.333 472.667 702.933 471.733 692.933C471.333 687.333 470.8 682.533 470.8 682.267C470.533 681.733 468.8 682.133 466 683.333Z" fill="white"/>
<path d="M521.6 683.2C520.133 684 520.267 684.533 522 685.2C524 685.867 524.267 687.467 523.733 694.667C523.2 703.2 523.333 703.333 526.533 703.333C529.067 703.333 529.467 702.933 528.267 701.733C527.333 700.8 526.667 696.4 526.667 691.067C526.667 681.867 525.733 680.533 521.6 683.2Z" fill="white"/>
<path d="M656.267 683.2C654.8 684.133 654.8 684.4 656.534 685.067C658.134 685.733 658.667 687.733 658.667 693.2C658.667 698 659.334 701.2 660.8 702.533C663.334 705.2 664.4 705.2 669.467 702.533C673.334 700.667 673.734 700.667 675.334 702.933C676.267 704.267 677.6 704.933 678.134 704.267C678.667 703.733 678.4 702.533 677.6 701.733C676.667 700.8 676 696.267 676 691.067C676 681.733 675.867 681.467 671.334 683.333C668.934 684.4 668.934 684.533 671.067 684.533C673.2 684.667 673.467 685.733 673.067 692.267C672.667 699.2 672.4 700 669.067 701.2C663.334 703.2 661.334 700.533 661.334 690.533C661.334 681.867 660.4 680.533 656.267 683.2Z" fill="white"/>
<path d="M798.933 683.2C797.466 684 797.6 684.533 799.333 685.2C801.333 685.867 801.6 687.467 801.066 694.667C800.666 701.867 800.933 703.333 802.666 703.333C804.266 703.333 804.533 701.6 804.266 692.667C803.733 682 802.933 680.533 798.933 683.2Z" fill="white"/>
</svg>
